<mxfile host="Electron" agent="Mozilla/5.0 (Macintosh; Intel Mac OS X 10_15_7) AppleWebKit/537.36 (KHTML, like Gecko) draw.io/28.1.2 Chrome/138.0.7204.243 Electron/37.4.0 Safari/537.36" version="28.1.2">
  <diagram name="Page-1" id="L7fq6ZYBcKOqJhVKGbL8">
    <mxGraphModel dx="1209" dy="891" grid="1" gridSize="10" guides="1" tooltips="1" connect="1" arrows="1" fold="1" page="1" pageScale="1" pageWidth="827" pageHeight="1169" math="0" shadow="0">
      <root>
        <mxCell id="0" />
        <mxCell id="1" parent="0" />
        <mxCell id="nLWHLkx-qIHtEbnEf00d-1" value="Client" style="shape=umlLifeline;perimeter=lifelinePerimeter;whiteSpace=wrap;container=1;dropTarget=0;collapsible=0;recursiveResize=0;outlineConnect=0;portConstraint=eastwest;newEdgeStyle={&quot;edgeStyle&quot;:&quot;elbowEdgeStyle&quot;,&quot;elbow&quot;:&quot;vertical&quot;,&quot;curved&quot;:0,&quot;rounded&quot;:0};size=65;" vertex="1" parent="1">
          <mxGeometry x="20" y="20" width="150" height="620" as="geometry" />
        </mxCell>
        <mxCell id="nLWHLkx-qIHtEbnEf00d-2" value="F5" style="shape=umlLifeline;perimeter=lifelinePerimeter;whiteSpace=wrap;container=1;dropTarget=0;collapsible=0;recursiveResize=0;outlineConnect=0;portConstraint=eastwest;newEdgeStyle={&quot;edgeStyle&quot;:&quot;elbowEdgeStyle&quot;,&quot;elbow&quot;:&quot;vertical&quot;,&quot;curved&quot;:0,&quot;rounded&quot;:0};size=65;" vertex="1" parent="1">
          <mxGeometry x="246" y="20" width="150" height="620" as="geometry" />
        </mxCell>
        <mxCell id="nLWHLkx-qIHtEbnEf00d-3" value="Worker Node (Cilium)" style="shape=umlLifeline;perimeter=lifelinePerimeter;whiteSpace=wrap;container=1;dropTarget=0;collapsible=0;recursiveResize=0;outlineConnect=0;portConstraint=eastwest;newEdgeStyle={&quot;edgeStyle&quot;:&quot;elbowEdgeStyle&quot;,&quot;elbow&quot;:&quot;vertical&quot;,&quot;curved&quot;:0,&quot;rounded&quot;:0};size=65;" vertex="1" parent="1">
          <mxGeometry x="595" y="20" width="176" height="620" as="geometry" />
        </mxCell>
        <mxCell id="nLWHLkx-qIHtEbnEf00d-4" value="NGINX Ingress Pod" style="shape=umlLifeline;perimeter=lifelinePerimeter;whiteSpace=wrap;container=1;dropTarget=0;collapsible=0;recursiveResize=0;outlineConnect=0;portConstraint=eastwest;newEdgeStyle={&quot;edgeStyle&quot;:&quot;elbowEdgeStyle&quot;,&quot;elbow&quot;:&quot;vertical&quot;,&quot;curved&quot;:0,&quot;rounded&quot;:0};size=65;" vertex="1" parent="1">
          <mxGeometry x="821" y="20" width="159" height="620" as="geometry" />
        </mxCell>
        <mxCell id="nLWHLkx-qIHtEbnEf00d-5" value="Cilium BPF Dataplane" style="shape=umlLifeline;perimeter=lifelinePerimeter;whiteSpace=wrap;container=1;dropTarget=0;collapsible=0;recursiveResize=0;outlineConnect=0;portConstraint=eastwest;newEdgeStyle={&quot;edgeStyle&quot;:&quot;elbowEdgeStyle&quot;,&quot;elbow&quot;:&quot;vertical&quot;,&quot;curved&quot;:0,&quot;rounded&quot;:0};size=65;" vertex="1" parent="1">
          <mxGeometry x="1156" y="20" width="175" height="620" as="geometry" />
        </mxCell>
        <mxCell id="nLWHLkx-qIHtEbnEf00d-6" value="App Pod" style="shape=umlLifeline;perimeter=lifelinePerimeter;whiteSpace=wrap;container=1;dropTarget=0;collapsible=0;recursiveResize=0;outlineConnect=0;portConstraint=eastwest;newEdgeStyle={&quot;edgeStyle&quot;:&quot;elbowEdgeStyle&quot;,&quot;elbow&quot;:&quot;vertical&quot;,&quot;curved&quot;:0,&quot;rounded&quot;:0};size=65;" vertex="1" parent="1">
          <mxGeometry x="1559" y="20" width="150" height="620" as="geometry" />
        </mxCell>
        <mxCell id="nLWHLkx-qIHtEbnEf00d-7" value="HTTPS request (443)" style="verticalAlign=bottom;edgeStyle=elbowEdgeStyle;elbow=vertical;curved=0;rounded=0;endArrow=block;" edge="1" parent="1" source="nLWHLkx-qIHtEbnEf00d-1" target="nLWHLkx-qIHtEbnEf00d-2">
          <mxGeometry relative="1" as="geometry">
            <Array as="points">
              <mxPoint x="217" y="121" />
            </Array>
          </mxGeometry>
        </mxCell>
        <mxCell id="nLWHLkx-qIHtEbnEf00d-8" value="Forward HTTPS to NodePort/Ingress VIP" style="verticalAlign=bottom;edgeStyle=elbowEdgeStyle;elbow=vertical;curved=0;rounded=0;endArrow=block;" edge="1" parent="1" source="nLWHLkx-qIHtEbnEf00d-2" target="nLWHLkx-qIHtEbnEf00d-3">
          <mxGeometry relative="1" as="geometry">
            <Array as="points">
              <mxPoint x="511" y="167" />
            </Array>
          </mxGeometry>
        </mxCell>
        <mxCell id="nLWHLkx-qIHtEbnEf00d-9" value="Packet intercepted (XDP/TC hook)" style="verticalAlign=bottom;edgeStyle=elbowEdgeStyle;elbow=vertical;curved=0;rounded=0;endArrow=block;" edge="1" parent="1" source="nLWHLkx-qIHtEbnEf00d-3" target="nLWHLkx-qIHtEbnEf00d-5">
          <mxGeometry relative="1" as="geometry">
            <Array as="points">
              <mxPoint x="972" y="213" />
            </Array>
          </mxGeometry>
        </mxCell>
        <mxCell id="nLWHLkx-qIHtEbnEf00d-10" value="DNAT to Ingress Pod IP (local/remote)" style="verticalAlign=bottom;edgeStyle=elbowEdgeStyle;elbow=vertical;curved=0;rounded=0;endArrow=block;" edge="1" parent="1" source="nLWHLkx-qIHtEbnEf00d-5" target="nLWHLkx-qIHtEbnEf00d-4">
          <mxGeometry relative="1" as="geometry">
            <Array as="points">
              <mxPoint x="1084" y="259" />
            </Array>
          </mxGeometry>
        </mxCell>
        <mxCell id="nLWHLkx-qIHtEbnEf00d-11" value="Request to backend ClusterIP" style="verticalAlign=bottom;edgeStyle=elbowEdgeStyle;elbow=vertical;curved=0;rounded=0;endArrow=block;" edge="1" parent="1" source="nLWHLkx-qIHtEbnEf00d-4" target="nLWHLkx-qIHtEbnEf00d-5">
          <mxGeometry relative="1" as="geometry">
            <Array as="points">
              <mxPoint x="1081" y="305" />
            </Array>
          </mxGeometry>
        </mxCell>
        <mxCell id="nLWHLkx-qIHtEbnEf00d-12" value="DNAT to backend Pod (via VXLAN if remote)" style="verticalAlign=bottom;edgeStyle=elbowEdgeStyle;elbow=vertical;curved=0;rounded=0;endArrow=block;" edge="1" parent="1" source="nLWHLkx-qIHtEbnEf00d-5" target="nLWHLkx-qIHtEbnEf00d-6">
          <mxGeometry relative="1" as="geometry">
            <Array as="points">
              <mxPoint x="1447" y="351" />
            </Array>
          </mxGeometry>
        </mxCell>
        <mxCell id="nLWHLkx-qIHtEbnEf00d-13" value="HTTP response" style="verticalAlign=bottom;edgeStyle=elbowEdgeStyle;elbow=vertical;curved=0;rounded=0;dashed=1;dashPattern=2 3;endArrow=block;" edge="1" parent="1" source="nLWHLkx-qIHtEbnEf00d-6" target="nLWHLkx-qIHtEbnEf00d-4">
          <mxGeometry relative="1" as="geometry">
            <Array as="points">
              <mxPoint x="1279" y="397" />
            </Array>
          </mxGeometry>
        </mxCell>
        <mxCell id="nLWHLkx-qIHtEbnEf00d-14" value="Response to client" style="verticalAlign=bottom;edgeStyle=elbowEdgeStyle;elbow=vertical;curved=0;rounded=0;dashed=1;dashPattern=2 3;endArrow=block;" edge="1" parent="1" source="nLWHLkx-qIHtEbnEf00d-4" target="nLWHLkx-qIHtEbnEf00d-5">
          <mxGeometry relative="1" as="geometry">
            <Array as="points">
              <mxPoint x="1081" y="443" />
            </Array>
          </mxGeometry>
        </mxCell>
        <mxCell id="nLWHLkx-qIHtEbnEf00d-15" value="Reverse NAT, deliver to LB" style="verticalAlign=bottom;edgeStyle=elbowEdgeStyle;elbow=vertical;curved=0;rounded=0;dashed=1;dashPattern=2 3;endArrow=block;" edge="1" parent="1" source="nLWHLkx-qIHtEbnEf00d-5" target="nLWHLkx-qIHtEbnEf00d-2">
          <mxGeometry relative="1" as="geometry">
            <Array as="points">
              <mxPoint x="794" y="489" />
            </Array>
          </mxGeometry>
        </mxCell>
        <mxCell id="nLWHLkx-qIHtEbnEf00d-16" value="HTTPS 200 OK" style="verticalAlign=bottom;edgeStyle=elbowEdgeStyle;elbow=vertical;curved=0;rounded=0;dashed=1;dashPattern=2 3;endArrow=block;" edge="1" parent="1" source="nLWHLkx-qIHtEbnEf00d-2" target="nLWHLkx-qIHtEbnEf00d-1">
          <mxGeometry relative="1" as="geometry">
            <Array as="points">
              <mxPoint x="220" y="535" />
            </Array>
          </mxGeometry>
        </mxCell>
      </root>
    </mxGraphModel>
  </diagram>
</mxfile>
